<svg xmlns="http://www.w3.org/2000/svg" viewBox="0 0 48 48" role="img" aria-label="微信">
  <path fill="#07C160" d="M19.7 11.3c-8 0-14.4 5.3-14.4 11.9 0 3.7 2 7 5.2 9.2l-1.1 4.1 4.8-2.4c1.7.6 3.5.9 5.5.9 7.9 0 14.4-5.3 14.4-11.8 0-6.6-6.5-11.9-14.4-11.9z"/>
  <path fill="#38D878" d="M29.8 20.2c-6.7 0-12.1 4.5-12.1 10 0 5.6 5.4 10 12.1 10 1.6 0 3.1-.2 4.5-.7l4 2-1-3.4c2.8-1.9 4.6-4.8 4.6-8 0-5.4-5.4-9.9-12.1-9.9z"/>
  <circle cx="15.4" cy="21.7" r="1.8" fill="#fff"/>
  <circle cx="24.5" cy="21.7" r="1.8" fill="#fff"/>
  <circle cx="26.5" cy="29.2" r="1.5" fill="#fff"/>
  <circle cx="34" cy="29.2" r="1.5" fill="#fff"/>
</svg>
