<svg xmlns="http://www.w3.org/2000/svg" viewBox="0 0 48 48" role="img" aria-label="QQ">
  <path fill="#111827" d="M24 4.8c-6.9 0-11.9 5.7-11.9 14.2 0 2 .3 4 .9 5.8-2.6 2.6-4.3 6.1-4.3 9.2 0 1.9.8 2.9 2.2 2.9.8 0 1.6-.4 2.5-1.1 1.1 4.7 5.1 7.4 10.6 7.4s9.5-2.7 10.6-7.4c.9.7 1.7 1.1 2.5 1.1 1.4 0 2.2-1 2.2-2.9 0-3.1-1.7-6.6-4.3-9.2.6-1.8.9-3.8.9-5.8 0-8.5-5-14.2-11.9-14.2z"/>
  <path fill="#ffffff" d="M24 13.1c-4.9 0-8.4 4.1-8.4 10 0 2.1.5 4.3 1.4 6.2 1.4 3.1 3.8 4.9 7 4.9s5.6-1.8 7-4.9c.9-1.9 1.4-4.1 1.4-6.2 0-5.9-3.5-10-8.4-10z"/>
  <ellipse cx="19.4" cy="18.8" rx="2.25" ry="3.05" fill="#111827"/>
  <ellipse cx="28.6" cy="18.8" rx="2.25" ry="3.05" fill="#111827"/>
  <circle cx="20.1" cy="17.7" r=".75" fill="#ffffff"/>
  <circle cx="29.3" cy="17.7" r=".75" fill="#ffffff"/>
  <path fill="#F59E0B" d="M18.2 24.7c1.1 1.7 3.1 2.8 5.8 2.8s4.7-1.1 5.8-2.8c-1.6.6-3.5.9-5.8.9s-4.2-.3-5.8-.9z"/>
  <path fill="#EF4444" d="M16 29.3c1.7 1.5 4.4 2.5 8 2.5s6.3-1 8-2.5c-.7 4.7-3.8 7.6-8 7.6s-7.3-2.9-8-7.6z"/>
  <path fill="#F59E0B" d="M16.5 39.2c1.4-.8 3.2-1.2 5.2-1.2.8 0 1.3.6 1.3 1.3 0 .7-.6 1.3-1.4 1.3h-4.7c-.9 0-1.1-.9-.4-1.4zm15.1 0c-1.4-.8-3.2-1.2-5.2-1.2-.8 0-1.3.6-1.3 1.3 0 .7.6 1.3 1.4 1.3h4.7c.9 0 1.1-.9.4-1.4z"/>
  <path fill="#111827" d="M14.1 27.4c-1.3 1.6-2.1 3.6-2.1 5.3 0 .7.2 1 .5 1 .6 0 1.4-.7 2.4-1.8-.5-1.4-.8-2.9-.8-4.5zm19.8 0c0 1.6-.3 3.1-.8 4.5 1 1.1 1.8 1.8 2.4 1.8.3 0 .5-.3.5-1 0-1.7-.8-3.7-2.1-5.3z"/>
</svg>
