<svg xmlns="http://www.w3.org/2000/svg" viewBox="0 0 860 680" aria-hidden="true">
  <g fill="#111111">
    <ellipse cx="260" cy="112" rx="82" ry="76"/>
    <ellipse cx="600" cy="112" rx="82" ry="76"/>
    <path d="M430 74c147 0 266 118 266 264 0 87-42 143-111 183-34 20-54 52-59 95-4 31-31 53-62 53H354c-31 0-58-22-62-53-5-43-25-75-59-95-69-40-111-96-111-183 0-146 119-264 266-264h42z"/>
    <ellipse cx="252" cy="522" rx="102" ry="138" transform="rotate(-16 252 522)"/>
    <ellipse cx="608" cy="522" rx="102" ry="138" transform="rotate(16 608 522)"/>
    <ellipse cx="430" cy="610" rx="116" ry="44"/>
  </g>
</svg>
