<svg xmlns="http://www.w3.org/2000/svg" viewBox="0 0 800 450">
  <defs>
    <linearGradient id="g" x1="0" y1="1" x2="1" y2="0"><stop stop-color="#f1f5f9"/><stop offset=".5" stop-color="#eff6ff"/><stop offset="1" stop-color="#ecfdf5"/></linearGradient>
  </defs>
  <rect width="800" height="450" rx="34" fill="url(#g)"/>
  <g fill="none" stroke-linecap="round" stroke-linejoin="round" opacity=".42">
    <path d="M164 288c58-58 106-82 166-70 52 10 70 44 116 47 50 4 88-27 188-112" stroke="#0f766e" stroke-width="16"/>
    <path d="M164 336c112-72 206-74 282-28 62 37 118 36 194-8" stroke="#2563eb" stroke-width="11" opacity=".56"/>
  </g>
  <g fill="#38bdf8" opacity=".34"><rect x="494" y="96" width="116" height="116" rx="28"/><rect x="612" y="188" width="54" height="54" rx="16"/></g>
  <g fill="#0f172a" opacity=".14"><rect x="144" y="108" width="176" height="18" rx="9"/><rect x="144" y="144" width="124" height="12" rx="6"/></g>
</svg>
