<svg xmlns="http://www.w3.org/2000/svg" viewBox="0 0 160 160">
  <defs>
    <style>
      .ring{fill:none;stroke:#111;stroke-width:7;stroke-linecap:round;stroke-linejoin:round}
      .line{fill:none;stroke:#111;stroke-width:5.5;stroke-linecap:round;stroke-linejoin:round}
      .fill{fill:#111}
    </style>
  </defs>
  <circle class="ring" cx="80" cy="80" r="66"/>
  <circle class="fill" cx="82" cy="82" r="8"/>
  <path class="line" d="M39 96c10-22 31-34 57-31 14 2 27 9 33 21 4 10 2 21-8 28-12 9-31 10-48 4-17-7-29-20-34-35"/>
  <path class="line" d="M98 49c7-2 15 0 21 5 4 4 7 9 7 15"/>
  <path class="line" d="M111 60l9-4m-7 12 11 1"/>
  <path class="line" d="M73 106l-8 14m24-11 5 14m21-14 7 10"/>
  <path class="line" d="M56 92l-11 12"/>
  <path class="line" d="M67 68l12 7m-6-16 13 9m-2 15 14 5"/>
  <path class="line" d="M92 88l13 7"/>
  <path class="line" d="M41 84c4-2 9-2 13 1"/>
</svg>
