<svg xmlns="http://www.w3.org/2000/svg" viewBox="0 0 160 160">
  <defs>
    <style>
      .ring{fill:none;stroke:#111;stroke-width:7;stroke-linecap:round;stroke-linejoin:round}
      .line{fill:none;stroke:#111;stroke-width:5.5;stroke-linecap:round;stroke-linejoin:round}
      .fill{fill:#111}
    </style>
  </defs>
  <circle class="ring" cx="80" cy="80" r="66"/>
  <circle class="fill" cx="82" cy="82" r="8"/>
  <path class="line" d="M41 92c0-20 18-36 40-36 24 0 44 15 45 34 2 18-15 33-38 35-26 3-47-12-47-33Z"/>
  <path class="line" d="M57 82c9-9 25-12 38-6m-32 19c11-7 26-9 39-4"/>
  <path class="line" d="M78 57c1-10 7-19 16-24 8-5 18-6 26-1"/>
  <path class="line" d="M117 35l7-9m-3 13 11-2"/>
  <path class="line" d="M111 49c7 5 11 12 12 20"/>
  <path class="line" d="M55 111l-7 12m22-8 2 13m20-13 6 12m21-17 7 11"/>
  <path class="line" d="M45 79c4-7 9-12 16-15"/>
</svg>
