<svg xmlns="http://www.w3.org/2000/svg" viewBox="0 0 160 160">
  <defs>
    <style>
      .ring{fill:none;stroke:#111;stroke-width:7;stroke-linecap:round;stroke-linejoin:round}
      .line{fill:none;stroke:#111;stroke-width:5.5;stroke-linecap:round;stroke-linejoin:round}
      .fill{fill:#111}
    </style>
  </defs>
  <circle class="ring" cx="80" cy="80" r="66"/>
  <circle class="fill" cx="82" cy="82" r="8"/>
  <path class="line" d="M47 104c2-26 17-48 37-56 18-7 39 1 46 17 7 16 1 34-16 44-19 11-47 9-67-5"/>
  <path class="line" d="M82 47c1 8-1 17-6 25"/>
  <path class="line" d="M63 74c10 3 19 9 27 16"/>
  <path class="line" d="M91 66c10 0 20 3 29 9"/>
  <path class="line" d="M53 88c10 2 17 6 24 12"/>
  <path class="line" d="M72 102l-16 18m26-15-7 17m20-19 6 16"/>
  <path class="line" d="M102 52l11-8m-4 13 12-3"/>
  <path class="line" d="M54 63c-6 5-9 11-11 18"/>
</svg>
